<?xml version="1.0" encoding="UTF-8" standalone="no"?>
<svg width="272px" height="184px" viewBox="0 0 272 184" version="1.1" xmlns="http://www.w3.org/2000/svg" xmlns:xlink="http://www.w3.org/1999/xlink">
    <!-- Generator: Sketch 46.1 (44463) - http://www.bohemiancoding.com/sketch -->
    <title>yellow-diamonds-right</title>
    <desc>Created with Sketch.</desc>
    <defs></defs>
    <g id="Page-1" stroke="none" stroke-width="1" fill="none" fill-rule="evenodd">
        <g id="LaurDIY-Desktop" transform="translate(-1719.000000, -210.000000)" fill="#FCFFCE">
            <g id="yellow-diamonds-right" transform="translate(1719.000000, 210.000000)">
                <g id="Group-4">
                    <rect id="Rectangle-4" transform="translate(76.368272, 80.631728) rotate(-45.000000) translate(-76.368272, -80.631728) " x="67.1758839" y="71.4393398" width="18.3847763" height="18.3847763"></rect>
                    <rect id="Rectangle-4" transform="translate(58.368272, 63.631728) rotate(-45.000000) translate(-58.368272, -63.631728) " x="49.1758839" y="54.4393398" width="18.3847763" height="18.3847763"></rect>
                    <rect id="Rectangle-4" transform="translate(51.368272, 89.631728) rotate(-45.000000) translate(-51.368272, -89.631728) " x="42.1758839" y="80.4393398" width="18.3847763" height="18.3847763"></rect>
                    <rect id="Rectangle-4" transform="translate(69.368272, 106.631728) rotate(-45.000000) translate(-69.368272, -106.631728) " x="60.1758839" y="97.4393398" width="18.3847763" height="18.3847763"></rect>
                    <rect id="Rectangle-4" transform="translate(112.368272, 114.631728) rotate(-45.000000) translate(-112.368272, -114.631728) " x="103.175884" y="105.43934" width="18.3847763" height="18.3847763"></rect>
                    <rect id="Rectangle-4" transform="translate(87.368272, 123.631728) rotate(-45.000000) translate(-87.368272, -123.631728) " x="78.1758839" y="114.43934" width="18.3847763" height="18.3847763"></rect>
                    <rect id="Rectangle-4" transform="translate(108.368272, 45.631728) rotate(-45.000000) translate(-108.368272, -45.631728) " x="99.1758839" y="36.4393398" width="18.3847763" height="18.3847763"></rect>
                    <rect id="Rectangle-4" transform="translate(101.368272, 71.631728) rotate(-45.000000) translate(-101.368272, -71.631728) " x="92.1758839" y="62.4393398" width="18.3847763" height="18.3847763"></rect>
                    <rect id="Rectangle-4" transform="translate(126.368272, 62.631728) rotate(-45.000000) translate(-126.368272, -62.631728) " x="117.175884" y="53.4393398" width="18.3847763" height="18.3847763"></rect>
                    <rect id="Rectangle-4" transform="translate(140.368272, 13.631728) rotate(-45.000000) translate(-140.368272, -13.631728) " x="131.175884" y="4.43933983" width="18.3847763" height="18.3847763"></rect>
                    <rect id="Rectangle-4" transform="translate(133.368272, 39.631728) rotate(-45.000000) translate(-133.368272, -39.631728) " x="124.175884" y="30.4393398" width="18.3847763" height="18.3847763"></rect>
                    <rect id="Rectangle-4" transform="translate(158.368272, 30.631728) rotate(-45.000000) translate(-158.368272, -30.631728) " x="149.175884" y="21.4393398" width="18.3847763" height="18.3847763"></rect>
                    <rect id="Rectangle-4" transform="translate(119.368272, 88.631728) rotate(-45.000000) translate(-119.368272, -88.631728) " x="110.175884" y="79.4393398" width="18.3847763" height="18.3847763"></rect>
                    <rect id="Rectangle-4" transform="translate(105.368272, 140.631728) rotate(-45.000000) translate(-105.368272, -140.631728) " x="96.1758839" y="131.43934" width="18.3847763" height="18.3847763"></rect>
                    <rect id="Rectangle-4" transform="translate(63.368272, 134.631728) rotate(-45.000000) translate(-63.368272, -134.631728) " x="54.1758839" y="125.43934" width="18.3847763" height="18.3847763"></rect>
                    <rect id="Rectangle-4" transform="translate(38.368272, 143.631728) rotate(-45.000000) translate(-38.368272, -143.631728) " x="29.1758839" y="134.43934" width="18.3847763" height="18.3847763"></rect>
                    <rect id="Rectangle-4" transform="translate(56.368272, 160.631728) rotate(-45.000000) translate(-56.368272, -160.631728) " x="47.1758839" y="151.43934" width="18.3847763" height="18.3847763"></rect>
                    <rect id="Rectangle-4" transform="translate(13.368272, 153.631728) rotate(-45.000000) translate(-13.368272, -153.631728) " x="4.17588386" y="144.43934" width="18.3847763" height="18.3847763"></rect>
                    <rect id="Rectangle-4" transform="translate(31.368272, 170.631728) rotate(-45.000000) translate(-31.368272, -170.631728) " x="22.1758839" y="161.43934" width="18.3847763" height="18.3847763"></rect>
                </g>
                <g id="Group-4" transform="translate(125.000000, 2.000000)">
                    <rect id="Rectangle-4" transform="translate(51.368272, 80.631728) rotate(-45.000000) translate(-51.368272, -80.631728) " x="42.1758839" y="71.4393398" width="18.3847763" height="18.3847763"></rect>
                    <rect id="Rectangle-4" transform="translate(33.368272, 63.631728) rotate(-45.000000) translate(-33.368272, -63.631728) " x="24.1758839" y="54.4393398" width="18.3847763" height="18.3847763"></rect>
                    <rect id="Rectangle-4" transform="translate(26.368272, 89.631728) rotate(-45.000000) translate(-26.368272, -89.631728) " x="17.1758839" y="80.4393398" width="18.3847763" height="18.3847763"></rect>
                    <rect id="Rectangle-4" transform="translate(87.368272, 114.631728) rotate(-45.000000) translate(-87.368272, -114.631728) " x="78.1758839" y="105.43934" width="18.3847763" height="18.3847763"></rect>
                    <rect id="Rectangle-4" transform="translate(69.368272, 97.631728) rotate(-45.000000) translate(-69.368272, -97.631728) " x="60.1758839" y="88.4393398" width="18.3847763" height="18.3847763"></rect>
                    <rect id="Rectangle-4" transform="translate(62.368272, 123.631728) rotate(-45.000000) translate(-62.368272, -123.631728) " x="53.1758839" y="114.43934" width="18.3847763" height="18.3847763"></rect>
                    <rect id="Rectangle-4" transform="translate(83.368272, 45.631728) rotate(-45.000000) translate(-83.368272, -45.631728) " x="74.1758839" y="36.4393398" width="18.3847763" height="18.3847763"></rect>
                    <rect id="Rectangle-4" transform="translate(76.368272, 71.631728) rotate(-45.000000) translate(-76.368272, -71.631728) " x="67.1758839" y="62.4393398" width="18.3847763" height="18.3847763"></rect>
                    <rect id="Rectangle-4" transform="translate(101.368272, 62.631728) rotate(-45.000000) translate(-101.368272, -62.631728) " x="92.1758839" y="53.4393398" width="18.3847763" height="18.3847763"></rect>
                    <rect id="Rectangle-4" transform="translate(115.368272, 13.631728) rotate(-45.000000) translate(-115.368272, -13.631728) " x="106.175884" y="4.43933983" width="18.3847763" height="18.3847763"></rect>
                    <rect id="Rectangle-4" transform="translate(108.368272, 39.631728) rotate(-45.000000) translate(-108.368272, -39.631728) " x="99.1758839" y="30.4393398" width="18.3847763" height="18.3847763"></rect>
                    <rect id="Rectangle-4" transform="translate(133.368272, 30.631728) rotate(-45.000000) translate(-133.368272, -30.631728) " x="124.175884" y="21.4393398" width="18.3847763" height="18.3847763"></rect>
                    <rect id="Rectangle-4" transform="translate(94.368272, 88.631728) rotate(-45.000000) translate(-94.368272, -88.631728) " x="85.1758839" y="79.4393398" width="18.3847763" height="18.3847763"></rect>
                    <rect id="Rectangle-4" transform="translate(80.368272, 140.631728) rotate(-45.000000) translate(-80.368272, -140.631728) " x="71.1758839" y="131.43934" width="18.3847763" height="18.3847763"></rect>
                    <rect id="Rectangle-4" transform="translate(38.368272, 134.631728) rotate(-45.000000) translate(-38.368272, -134.631728) " x="29.1758839" y="125.43934" width="18.3847763" height="18.3847763"></rect>
                    <rect id="Rectangle-4" transform="translate(13.368272, 143.631728) rotate(-45.000000) translate(-13.368272, -143.631728) " x="4.17588386" y="134.43934" width="18.3847763" height="18.3847763"></rect>
                    <rect id="Rectangle-4" transform="translate(31.368272, 160.631728) rotate(-45.000000) translate(-31.368272, -160.631728) " x="22.1758839" y="151.43934" width="18.3847763" height="18.3847763"></rect>
                </g>
            </g>
        </g>
    </g>
</svg>