<?xml version="1.0" encoding="UTF-8" standalone="no"?>
<svg width="218px" height="361px" viewBox="0 0 218 361" version="1.1" xmlns="http://www.w3.org/2000/svg" xmlns:xlink="http://www.w3.org/1999/xlink">
    <!-- Generator: Sketch 46.1 (44463) - http://www.bohemiancoding.com/sketch -->
    <title>Group 8</title>
    <desc>Created with Sketch.</desc>
    <defs></defs>
    <g id="Page-1" stroke="none" stroke-width="1" fill="none" fill-rule="evenodd">
        <g id="LaurDIY-Desktop" transform="translate(-1169.000000, -945.000000)" fill="#FCFFCE">
            <g id="Group-8" transform="translate(1169.000000, 945.000000)">
                <g id="Group-4" transform="translate(14.000000, 187.000000)">
                    <rect id="Rectangle-4" transform="translate(51.368272, 80.631728) rotate(-45.000000) translate(-51.368272, -80.631728) " x="42.1758839" y="71.4393398" width="18.3847763" height="18.3847763"></rect>
                    <rect id="Rectangle-4" transform="translate(33.368272, 63.631728) rotate(-45.000000) translate(-33.368272, -63.631728) " x="24.1758839" y="54.4393398" width="18.3847763" height="18.3847763"></rect>
                    <rect id="Rectangle-4" transform="translate(26.368272, 89.631728) rotate(-45.000000) translate(-26.368272, -89.631728) " x="17.1758839" y="80.4393398" width="18.3847763" height="18.3847763"></rect>
                    <rect id="Rectangle-4" transform="translate(44.368272, 106.631728) rotate(-45.000000) translate(-44.368272, -106.631728) " x="35.1758839" y="97.4393398" width="18.3847763" height="18.3847763"></rect>
                    <rect id="Rectangle-4" transform="translate(87.368272, 114.631728) rotate(-45.000000) translate(-87.368272, -114.631728) " x="78.1758839" y="105.43934" width="18.3847763" height="18.3847763"></rect>
                    <rect id="Rectangle-4" transform="translate(62.368272, 123.631728) rotate(-45.000000) translate(-62.368272, -123.631728) " x="53.1758839" y="114.43934" width="18.3847763" height="18.3847763"></rect>
                    <rect id="Rectangle-4" transform="translate(83.368272, 45.631728) rotate(-45.000000) translate(-83.368272, -45.631728) " x="74.1758839" y="36.4393398" width="18.3847763" height="18.3847763"></rect>
                    <rect id="Rectangle-4" transform="translate(76.368272, 71.631728) rotate(-45.000000) translate(-76.368272, -71.631728) " x="67.1758839" y="62.4393398" width="18.3847763" height="18.3847763"></rect>
                    <rect id="Rectangle-4" transform="translate(101.368272, 62.631728) rotate(-45.000000) translate(-101.368272, -62.631728) " x="92.1758839" y="53.4393398" width="18.3847763" height="18.3847763"></rect>
                    <rect id="Rectangle-4" transform="translate(115.368272, 13.631728) rotate(-45.000000) translate(-115.368272, -13.631728) " x="106.175884" y="4.43933983" width="18.3847763" height="18.3847763"></rect>
                    <rect id="Rectangle-4" transform="translate(108.368272, 39.631728) rotate(-45.000000) translate(-108.368272, -39.631728) " x="99.1758839" y="30.4393398" width="18.3847763" height="18.3847763"></rect>
                    <rect id="Rectangle-4" transform="translate(133.368272, 30.631728) rotate(-45.000000) translate(-133.368272, -30.631728) " x="124.175884" y="21.4393398" width="18.3847763" height="18.3847763"></rect>
                    <rect id="Rectangle-4" transform="translate(94.368272, 88.631728) rotate(-45.000000) translate(-94.368272, -88.631728) " x="85.1758839" y="79.4393398" width="18.3847763" height="18.3847763"></rect>
                    <rect id="Rectangle-4" transform="translate(80.368272, 140.631728) rotate(-45.000000) translate(-80.368272, -140.631728) " x="71.1758839" y="131.43934" width="18.3847763" height="18.3847763"></rect>
                    <rect id="Rectangle-4" transform="translate(38.368272, 134.631728) rotate(-45.000000) translate(-38.368272, -134.631728) " x="29.1758839" y="125.43934" width="18.3847763" height="18.3847763"></rect>
                    <rect id="Rectangle-4" transform="translate(13.368272, 143.631728) rotate(-45.000000) translate(-13.368272, -143.631728) " x="4.17588386" y="134.43934" width="18.3847763" height="18.3847763"></rect>
                    <rect id="Rectangle-4" transform="translate(31.368272, 160.631728) rotate(-45.000000) translate(-31.368272, -160.631728) " x="22.1758839" y="151.43934" width="18.3847763" height="18.3847763"></rect>
                </g>
                <g id="Group-4">
                    <rect id="Rectangle-4" transform="translate(122.368272, 128.631728) rotate(-45.000000) translate(-122.368272, -128.631728) " x="113.175884" y="119.43934" width="18.3847763" height="18.3847763"></rect>
                    <rect id="Rectangle-4" transform="translate(104.368272, 111.631728) rotate(-45.000000) translate(-104.368272, -111.631728) " x="95.1758839" y="102.43934" width="18.3847763" height="18.3847763"></rect>
                    <rect id="Rectangle-4" transform="translate(64.368272, 87.631728) rotate(-45.000000) translate(-64.368272, -87.631728) " x="55.1758839" y="78.4393398" width="18.3847763" height="18.3847763"></rect>
                    <rect id="Rectangle-4" transform="translate(13.368272, 55.631728) rotate(-45.000000) translate(-13.368272, -55.631728) " x="4.17588386" y="46.4393398" width="18.3847763" height="18.3847763"></rect>
                    <rect id="Rectangle-4" transform="translate(120.368272, 63.631728) rotate(-45.000000) translate(-120.368272, -63.631728) " x="111.175884" y="54.4393398" width="18.3847763" height="18.3847763"></rect>
                    <rect id="Rectangle-4" transform="translate(86.368272, 13.631728) rotate(-45.000000) translate(-86.368272, -13.631728) " x="77.1758839" y="4.43933983" width="18.3847763" height="18.3847763"></rect>
                    <rect id="Rectangle-4" transform="translate(97.368272, 137.631728) rotate(-45.000000) translate(-97.368272, -137.631728) " x="88.1758839" y="128.43934" width="18.3847763" height="18.3847763"></rect>
                    <rect id="Rectangle-4" transform="translate(115.368272, 154.631728) rotate(-45.000000) translate(-115.368272, -154.631728) " x="106.175884" y="145.43934" width="18.3847763" height="18.3847763"></rect>
                    <rect id="Rectangle-4" transform="translate(158.368272, 162.631728) rotate(-45.000000) translate(-158.368272, -162.631728) " x="149.175884" y="153.43934" width="18.3847763" height="18.3847763"></rect>
                    <rect id="Rectangle-4" transform="translate(133.368272, 171.631728) rotate(-45.000000) translate(-133.368272, -171.631728) " x="124.175884" y="162.43934" width="18.3847763" height="18.3847763"></rect>
                    <rect id="Rectangle-4" transform="translate(154.368272, 93.631728) rotate(-45.000000) translate(-154.368272, -93.631728) " x="145.175884" y="84.4393398" width="18.3847763" height="18.3847763"></rect>
                    <rect id="Rectangle-4" transform="translate(147.368272, 119.631728) rotate(-45.000000) translate(-147.368272, -119.631728) " x="138.175884" y="110.43934" width="18.3847763" height="18.3847763"></rect>
                    <rect id="Rectangle-4" transform="translate(172.368272, 110.631728) rotate(-45.000000) translate(-172.368272, -110.631728) " x="163.175884" y="101.43934" width="18.3847763" height="18.3847763"></rect>
                    <rect id="Rectangle-4" transform="translate(186.368272, 61.631728) rotate(-45.000000) translate(-186.368272, -61.631728) " x="177.175884" y="52.4393398" width="18.3847763" height="18.3847763"></rect>
                    <rect id="Rectangle-4" transform="translate(179.368272, 87.631728) rotate(-45.000000) translate(-179.368272, -87.631728) " x="170.175884" y="78.4393398" width="18.3847763" height="18.3847763"></rect>
                    <rect id="Rectangle-4" transform="translate(204.368272, 78.631728) rotate(-45.000000) translate(-204.368272, -78.631728) " x="195.175884" y="69.4393398" width="18.3847763" height="18.3847763"></rect>
                    <rect id="Rectangle-4" transform="translate(165.368272, 136.631728) rotate(-45.000000) translate(-165.368272, -136.631728) " x="156.175884" y="127.43934" width="18.3847763" height="18.3847763"></rect>
                    <rect id="Rectangle-4" transform="translate(151.368272, 188.631728) rotate(-45.000000) translate(-151.368272, -188.631728) " x="142.175884" y="179.43934" width="18.3847763" height="18.3847763"></rect>
                    <rect id="Rectangle-4" transform="translate(109.368272, 182.631728) rotate(-45.000000) translate(-109.368272, -182.631728) " x="100.175884" y="173.43934" width="18.3847763" height="18.3847763"></rect>
                    <rect id="Rectangle-4" transform="translate(84.368272, 191.631728) rotate(-45.000000) translate(-84.368272, -191.631728) " x="75.1758839" y="182.43934" width="18.3847763" height="18.3847763"></rect>
                    <rect id="Rectangle-4" transform="translate(102.368272, 208.631728) rotate(-45.000000) translate(-102.368272, -208.631728) " x="93.1758839" y="199.43934" width="18.3847763" height="18.3847763"></rect>
                </g>
            </g>
        </g>
    </g>
</svg>